<?xml version="1.0" encoding="UTF-8"?>
<svg id="Layer_1" data-name="Layer 1" xmlns="http://www.w3.org/2000/svg" xmlns:xlink="http://www.w3.org/1999/xlink" viewBox="0 0 1548 180">
  <defs>
    <style>
      .cls-1 {
        mask: url(#mask);
      }

      .cls-2 {
        fill: #fff;
      }

      .cls-2, .cls-3 {
        fill-rule: evenodd;
      }

      .cls-4 {
        fill: none;
        stroke: #21a55d;
        stroke-miterlimit: 10;
        stroke-width: 6px;
      }

      .cls-3 {
        fill: #2c3038;
      }

      .cls-5 {
        fill: #21a55d;
        font-family: TTRamillas-BlackItalic, 'TT Ramillas';
        font-size: 173.47px;
        font-style: italic;
        font-weight: 800;
      }
    </style>
    <mask id="mask" x="7.16" y="14.75" width="116.11" height="144.28" maskUnits="userSpaceOnUse">
      <g id="mask0_14_51" data-name="mask0 14 51">
        <path class="cls-2" d="M7.16,14.75h116.11v144.28H7.16V14.75Z"/>
      </g>
    </mask>
  </defs>
  <line class="cls-4" x1="596.5" y1="10" x2="596.5" y2="166"/>
  <text class="cls-5" transform="translate(690.82 141.51)"><tspan x="0" y="0">Næstuferð</tspan></text>
  <g>
    <g class="cls-1">
      <path class="cls-3" d="M121,149.26c-6.39-8.85-20.9-30.45-27.11-39.42-5.67-8.2-11.06-16.6-17.07-25.67,12.9-10.53,28.9-32.15,34.72-46.53,1.82-4.49-.42-7.15-5.18-7.5-6.85-.51-13.76-.18-20.64-.06-3.39.06-5.7,1.91-7.36,4.95-3.07,5.58-6.66,10.14-10.25,15.39-7.21,10.51-15.4,20.2-25.6,29.51v-5.31c0-24.33.01-20.7-.02-45.03,0-2.33-.1-4.69-.47-6.98-.79-4.82-2.74-7.13-7.58-7.45-7.1-.47-14.27-.55-21.38-.16-5.17.28-5.91,1.62-5.9,6.71.08,45.79.15,59.23.24,105.03,0,2.21-.06,4.44.21,6.62.6,4.83,2.87,7.59,7.68,7.88,7.37.44,14.77.27,22.16.11,3.77-.08,5.36-2.27,5.27-6.17-.22-9.49-.19-14.6-.15-24.09,0-1.17.3-2.84,1.09-3.42,2.97-2.2,6.21-4.06,9.48-6.12,1.02,1.76,22.03,37.05,27.85,46.75,3.23,5.4,7.48,10.08,14.19,10.45,7.36.41,14.82.47,22.14-.22,6.59-.62,7.58-3.88,3.7-9.24Z"/>
    </g>
    <path class="cls-3" d="M194.25,76.05c-.39.43-3.5,3.06-5.41-.33-7.27-10.4-21.72-9.43-29.77-6.91-7.59,2.37-8.44,2.81-10.1,3.49-.82.34-2.07.66-2.58.18-.52-.48-.35-2.37.16-3.68,3.46-8.77,10.22-13.9,18.08-15.81,1.73-.42,3.53-.46,4.89-.63,9.28.31,17.48,4.24,22.69,13.6,1.21,2.18,1.92,4.79,2.62,7.29.23.81-.06,2.22-.57,2.79ZM216.1,69.57c-2.77-17.15-10.65-30.91-27.6-37.74-10.41-4.2-21.31-4.51-32.24-2.79-19.24,3.03-33.66,12.76-40.98,31.26-6.94,17.54-7.1,35.55-1.61,53.49,3.45,11.27,12.46,24.9,29.62,31.46,11.76,4.5,24,5.44,36.45,4.33,8.75-.78,17.22-2.58,24.78-7.38,5.01-3.18,9.06-7.35,9.61-13.46.25-2.81-.51-6.44-2.26-8.42-1.09-1.23-5.12-.7-7.43.13-11.24,4.03-22.7,5.54-34.5,3.72-15.2-2.34-24.83-13.52-23.74-27.66,4.68,0,9.08.01,13.48,0,16.51-.06,33.02-.04,49.53-.26,5.48-.07,7.8-2.44,7.83-8.04.04-6.22.04-12.53-.94-18.64Z"/>
    <path class="cls-3" d="M335.46,45.86c-.02-2.51-.22-5.03-.49-7.53-.47-4.45-3.11-7.18-7.44-7.46-6.99-.44-14.04-.76-21.03-.4-6.48.34-7.09,1.67-7.06,8.35.12,25.35.2,18.11.13,43.45,0,1.54-1.04,3.64-2.27,4.51-6.94,4.87-14.66,6.59-23.04,4.66-4.36-1-7.38-3.62-8.54-7.98-.64-2.41-1.13-4.95-1.15-7.43-.14-20.57-.16-8.56-.24-29.12,0-2.52-.07-5.04-.31-7.55-.51-5.37-2.49-8.07-7.72-8.47-7.37-.56-14.82-.62-22.2-.19-5.12.3-5.89,1.8-5.87,7.05.11,24.28.21,15.99.34,40.27.01,2.78.13,5.57.32,8.35,1.26,18.7,11.9,29.95,30.52,32.35,15.38,1.99,29-1.3,40.52-12,0,1.57,0,2.61.01,2.61,1.08,14-8.46,28.95-23.52,31.27-11.7,1.8-23.05.3-34.19-3.69-2.3-.82-6.28-1.35-7.36-.12-1.74,1.96-2.49,5.56-2.23,8.33.55,6.06,4.56,10.19,9.53,13.35,7.48,4.75,15.88,6.54,24.55,7.32,12.33,1.1,24.46.17,36.11-4.29,14.77-5.65,24.73-16.07,29.34-31.17,1.15-3.77,2.05-7.54,2.68-11.3.66-3.91,1.05-7.82,1.14-11.72l.02-13.33v-1.46l-.56-46.65Z"/>
    <path class="cls-3" d="M421.12,98.42c-2.48,7.14-7.66,12.09-17.67,12.26-6.82.17-20.33-1.34-20.33-5.76-.16-9.26-.67-32.43-.48-41.44.04-1.48.96-3.52,2.14-4.3,7.04-4.67,14.96-6.21,23.24-5,6.87,1,11.5,5.4,13.57,11.79,3.59,11.4,2.88,21.26-.46,32.44ZM454.65,60.94c-7.08-25.83-28.01-37.66-53.99-31.11-7.82,1.97-14.5,5.57-21.03,11.29-.41-1.21-.71-2.02-.95-2.85-1.89-6.7-3.43-8-10.2-8.16-4.51-.11-9.02-.11-13.53.01-6.18.17-7.34,1.49-7.32,7.72.2,45.87.39,48,.59,93.87,0,2.19-.06,17.02.15,19.19.49,5.06,2.55,7.7,7.59,8.24,5.99.64,12.08.76,18.11.62,8.34-.2,9.08-1.25,9.05-9.59-.05-12.87-.01-8-.01-20.29,6.72,1.6,10.46,3.94,20.38,4.73,21.48,1.73,37.78-10.03,46.6-28.74,5.93-12.45,8.64-29.74,4.55-44.93Z"/>
    <path class="cls-3" d="M469.78,127.65s0-.05,0-.07c0-.02,0-.05,0-.07,0-.02,0-.05,0-.07,0-.02,0-.05.01-.07,0-.02,0-.04,0-.07,0-.02,0-.05,0-.07,0-.02,0-.05,0-.07,0-.02,0-.04,0-.07,0-.02,0-.05,0-.07,0-.02,0-.04,0-.07,0-.02,0-.05,0-.07,0-.02,0-.05,0-.07,0-.02,0-.04,0-.07,0-.02,0-.05,0-.07,0-.02,0-.05,0-.07s0-.04,0-.07c0-.03,0-.05,0-.07,0-.02,0-.05,0-.07,0-.02,0-.05,0-.07,0-.02,0-.05,0-.07,0-.02,0-.04,0-.07,0-.02,0-.05,0-.07,0-.02,0-.05,0-.07,0-.01,0-.03,0-.04v-.02s0-.05,0-.08c0-.03,0-.05,0-.08,0-.02,0-.05,0-.07,0-.03,0-.05,0-.07,0-.03,0-.05,0-.08,0-.02,0-.05,0-.08,0-.02,0-.05,0-.07,0-.03-.01-.06-.02-.08,0-.04-.03-.06-.04-.09-.02-.03-.03-.06-.04-.09-.02-.03-.03-.07-.05-.09l-.53-.25c-.05,0-.12-.01-.19-.02-.06,0-.11-.01-.19-.01-.03,0-.04,0-.07,0h-.09c-.05,0-.1,0-.15,0h-.15c-.05,0-.1,0-.15,0h-.15c-.05,0-.1,0-.15,0-.05,0-.1,0-.15,0h-.15s-.1,0-.15,0h-.15c-.05,0-.11,0-.15,0h-.15s-.1,0-.15,0c-.05,0-.1,0-.15,0h-.15c-.05,0-.1,0-.15,0h-.15s-.1,0-.15,0c-.05,0-.1,0-.15,0h-.15s-.1,0-.15,0h-.15s-.1,0-.15,0h-.15c-.05,0-.1,0-.15,0-.05,0-.1,0-.15,0h-.15c-.05,0-.1,0-.15,0h-.15s-.03,0-.03,0c-.05,0-.09,0-.15,0-.06,0-.13,0-.18-.01,0,0-.01-.01-.02-.01-.06-.02-.11-.09-.16-.15-.03-.03-.07-.03-.09-.08,0,0,0-.03-.01-.03,0-.02-.01-.06-.02-.08-.01-.02-.02-.06-.03-.09,0-.03-.02-.05-.03-.08s-.02-.05-.02-.08c-.01-.03-.02-.05-.03-.09,0-.02,0-.04-.02-.07,0-.03,0-.05,0-.08,0-.02,0-.05,0-.08,0-.02-.01-.05-.01-.08,0-.03-.01-.05-.01-.07,0-.03-.01-.05-.01-.08s0-.05-.01-.08c0-.03,0-.05,0-.08,0-.03,0-.05,0-.08,0-.03-.01-.05,0-.08,0-.02,0-.05,0-.07,0-.02,0-.05,0-.07,0-.02,0-.05,0-.07,0-.02,0-.05,0-.07,0-.02,0-.05,0-.07v-.07s0-.05,0-.07c0-.03,0-.05,0-.07,0-.03,0-.05,0-.07,0-.03,0-.05,0-.07,0-.02,0-.05,0-.07v-.07s0-.05.01-.07c0-.03,0-.05,0-.07,0-.02,0-.05,0-.07,0-.02,0-.05,0-.07,0-.02,0-.05,0-.07,0-.02,0-.04,0-.07,0-.02,0-.05,0-.07,0-.02,0-.05,0-.07,0-.02,0-.05,0-.07,0-.02,0-.04,0-.07,0-.02,0-.04,0-.07,0-.02,0-.05,0-.07,0-.02,0-.05,0-.07s.01-.04.02-.06c0-.02.01-.04.02-.06,0-.02.01-.04.02-.06l.02-.06s.02-.04.02-.06c0-.02.01-.04.02-.06s.01-.04.02-.06c0-.02.02-.04.02-.06.01-.02.01-.04.02-.06,0-.02.01-.04.02-.06,0-.02.01-.04.02-.06,0-.02,0-.04.02-.06,0-.02,0-.04.02-.06,0-.02.02-.03.03-.05.01-.02.03-.03.04-.06.01-.02.02-.03.03-.06,0-.02.02-.03.04-.05,0-.02.02-.04.03-.06s.02-.04.03-.06c.01-.02.03-.03.03-.06.02-.02.03-.03.04-.05.01-.02.02-.04.04-.05.01-.02.02-.04.03-.06.01-.02.02-.04.04-.06.01-.02.02-.04.03-.05.02-.02.03-.03.05-.05.02-.02.05-.02.06-.04.02-.02.05-.02.07-.04.02-.02.04-.03.06-.04.02-.02.04-.03.07-.04.02-.01.04-.03.06-.04.02-.01.04-.03.06-.04.02-.01.04-.03.06-.04.03-.01.04-.03.06-.04.03,0,.04-.03.07-.04.03-.01.04-.03.07-.04.04-.01.09,0,.13-.01.04,0,.09,0,.13-.01.04,0,.09,0,.13,0,.04,0,.08,0,.13-.01.05,0,.08-.01.13,0,.04,0,.08-.02.13-.01.05,0,.08-.02.13-.01.21.03.39.13.55.26.05.04.1.09.15.14.05.05.1.09.14.14.05.05.1.09.14.13h0s.07.08.1.12c.03.04.06.08.1.12.04.04.07.08.1.12.03.04.07.08.1.12.03.04.07.08.1.12.03.04.07.07.1.11.03.04.07.08.1.12.03.04.07.08.1.12.03.04.07.08.1.12,0,.01.02.02.02.03.05.06.11.07.16.13.07.07.14.13.22.17l.28.13c.05.01.11,0,.17,0,.05,0,.11.01.17,0,.06,0,.11.02.17,0,.02,0,.03,0,.04,0,.02,0,.04-.02.07-.02.03,0,.06-.02.09-.03.03,0,.06-.02.08-.03.03,0,.06-.02.09-.03.03,0,.06-.02.09-.03.03-.01.06-.02.09-.03.03-.01.05-.02.08-.03.03-.01.06-.02.09-.03.03-.01.06-.02.09-.03.02,0,.03-.03.05-.04.02-.01.04-.03.06-.04.02-.01.04-.03.06-.04.02-.01.04-.03.06-.04.02-.02.04-.03.05-.05.02-.01.04-.03.06-.05.02-.01.04-.03.05-.05.02-.01.04-.03.06-.04.01-.02.04-.02.05-.04.02-.02.04-.03.06-.04.02-.02.04-.03.06-.04.02-.02.03-.03.04-.05.01-.01.02-.04.04-.05.01-.02.02-.04.04-.05.01-.02.02-.04.04-.05.01-.02.02-.04.03-.05.01-.02.03-.03.04-.05l.04-.05s.02-.04.03-.06c.01-.02.02-.03.04-.05.01-.02.02-.04.04-.05.01-.02.02-.04.03-.05.01-.02.03-.03.04-.05s.03-.03.03-.06c.01-.02,0-.04.02-.06,0-.02,0-.04.01-.06.01-.02.01-.04.02-.06,0-.02,0-.04.02-.06,0-.02.01-.04.02-.06,0-.02.01-.04.02-.06,0-.02.01-.04.02-.06,0-.02.01-.04.02-.06,0-.02.02-.04.02-.06,0-.02.01-.04.02-.06,0-.02.01-.04.02-.06,0-.02.02-.04.02-.06h0s0-.05,0-.07c0-.02,0-.05,0-.07s0-.05,0-.07c0-.02,0-.05,0-.07,0-.02,0-.05,0-.07,0-.02,0-.05,0-.07,0-.03,0-.05,0-.07,0-.02,0-.05,0-.07,0-.02,0-.05,0-.07,0-.03,0-.05,0-.07,0-.02,0-.05,0-.07,0-.03,0-.05,0-.07,0-.02,0-.05,0-.07,0-.03-.02-.06-.03-.09,0-.03-.03-.06-.04-.09-.01-.03-.03-.06-.04-.09-.01-.03-.03-.06-.04-.09-.01-.03-.02-.06-.04-.09-.01-.03-.02-.06-.04-.09-.01-.03-.02-.06-.03-.09-.02-.03-.03-.06-.04-.09-.02-.03-.02-.06-.04-.09-.02-.04-.05-.07-.08-.11-.03-.05-.09-.08-.12-.13-.04-.04-.08-.08-.12-.13-.04-.04-.08-.09-.12-.13-.04-.04-.08-.09-.12-.13-.1-.08-.21-.15-.32-.22-.23-.15-.46-.29-.76-.4-.08-.03-.16-.04-.24-.06-.12-.04-.23-.06-.35-.09-.11-.04-.23-.06-.35-.09-.12-.03-.23-.06-.35-.09-.12-.03-.23-.07-.35-.09-.12-.02-.23-.07-.35-.09s-.23-.07-.35-.09c-.07-.01-.14-.02-.21-.03-.06,0-.13,0-.19-.01-.06,0-.13,0-.18-.01-.06,0-.13,0-.18-.01-.06,0-.13,0-.19-.02-.06,0-.12-.01-.18-.02-.06,0-.12,0-.18-.01-.06,0-.12-.01-.19-.01-.06,0-.12-.01-.18-.01-.06,0-.12-.01-.18-.02-.06,0-.12-.01-.18-.01-.06,0-.13-.01-.18-.02-.07,0-.13-.01-.19-.01-.01,0-.03,0-.05,0-.03,0-.06,0-.09,0-.05,0-.09,0-.13.01-.04,0-.08,0-.13,0-.04,0-.08,0-.13,0-.04,0-.08,0-.13.01-.04,0-.09,0-.13.01-.04,0-.09,0-.13,0-.04,0-.09,0-.13.01-.04,0-.07.01-.11.02-.04,0-.06.02-.09.03-.04,0-.07.02-.1.03-.03,0-.06.02-.09.03-.03,0-.06.02-.09.03-.03,0-.07.02-.09.03-.03,0-.06.02-.09.03-.03,0-.07.02-.09.03-.03,0-.06.02-.09.03-.03,0-.07.01-.09.03-.03.01-.05.02-.08.04-.02,0-.05.03-.07.04-.03.01-.05.03-.07.04-.03.01-.05.03-.08.04-.02.01-.04.02-.07.04-.02.01-.05.02-.07.04-.02.02-.05.03-.07.04-.02.01-.05.03-.07.04-.03.01-.05.02-.07.04-.03.01-.05.02-.08.04-.03.01-.05.02-.07.04-.02.01-.04.03-.06.04-.02.01-.04.03-.06.04-.02.01-.04.03-.06.04-.02.02-.04.03-.06.04-.02.02-.04.03-.06.05-.02.01-.03.03-.05.05-.02.01-.04.03-.06.04-.02.01-.04.03-.06.04-.02.01-.04.03-.06.04-.02.02-.04.03-.06.04-.02.02-.04.03-.06.04-.02.02-.04.03-.06.05-.01.02-.03.03-.04.05-.02.02-.03.03-.04.05-.02.01-.03.03-.05.05-.01.02-.03.03-.04.05-.01.02-.03.03-.04.05-.02.02-.03.03-.05.05-.01.02-.03.03-.04.05-.01.02-.03.03-.04.05-.01.02-.03.03-.04.05-.02.02-.03.03-.05.05-.02.02-.03.03-.05.05-.02.02-.03.03-.04.05-.01.02-.03.03-.04.05-.01.01-.02.04-.03.05-.01.02-.02.04-.03.06-.01.02-.02.04-.03.06-.02.02-.03.03-.04.05,0,.02-.02.04-.03.06-.01.02-.03.04-.04.05-.01.02-.02.04-.04.05-.01.02-.02.04-.03.06-.01.02-.03.03-.04.05-.01.02-.03.03-.04.05-.01.02-.02.04-.03.06s-.02.04-.03.06c-.01.02-.03.03-.04.05s-.02.04-.03.06c-.01.02-.02.04-.03.06s-.02.04-.03.06c-.01.02-.02.04-.03.06-.01.02-.02.04-.03.06-.01.02-.02.04-.03.06,0,.02-.01.04-.03.06,0,.02-.02.04-.03.06,0,.02-.02.04-.02.06-.01.02-.02.04-.03.06-.01.02-.02.04-.03.06-.01.02-.02.04-.03.06-.01.02-.02.04-.03.06-.01.02-.02.04-.02.06-.01.02-.02.04-.03.06-.01.02-.02.04-.02.06,0,.02-.02.04-.03.06,0,.02-.01.04-.02.06-.01.02-.01.04-.02.06-.01.02-.02.04-.03.06,0,.02-.01.04-.03.06,0,.02-.01.04-.02.06,0,.02-.01.04-.02.06-.01.02-.02.04-.03.06,0,.02-.01.04-.02.06,0,.02-.02.04-.03.06,0,.02-.01.04-.02.06,0,.02-.01.04-.02.06,0,.02-.01.04-.02.06,0,.02-.01.04-.02.06l-.02.06s-.01.04-.02.06c0,.02-.02.04-.02.06,0,.02,0,.04-.02.06l-.02.06s-.02.04-.02.06c0,.02-.01.04-.02.06,0,.02-.01.04-.01.06-.01.02-.02.04-.02.06,0,.02-.01.04-.02.06,0,.02,0,.04-.02.06v.07s-.02.04-.03.06v.07s-.02.04-.02.06c0,.02-.01.04-.02.06,0,.02-.01.04-.02.06v.07s-.02.04-.02.06v.07s-.02.04-.02.06c0,.02-.01.04-.02.06,0,.02,0,.04,0,.07v.07s-.02.04-.02.07c0,.02,0,.05,0,.07,0,.02,0,.05,0,.07,0,.02,0,.04,0,.07,0,.02,0,.05,0,.07v.07s-.01.04-.02.07c0,.02,0,.05,0,.07,0,.02,0,.04,0,.07,0,.02,0,.05,0,.07,0,.02,0,.04,0,.07,0,.02,0,.04,0,.07,0,.02,0,.04,0,.07,0,.02,0,.05,0,.07,0,.02,0,.04,0,.07,0,.02,0,.05,0,.07,0,.02,0,.05,0,.07,0,.02,0,.05,0,.07s0,.05,0,.07c0,.02,0,.05,0,.07v.07s0,.05,0,.07c0,.02,0,.05,0,.07,0,.03,0,.05,0,.07,0,.03,0,.05,0,.07-.03.68.01,1.18.08,1.3-.47,0-.86,0-1.24,0-.42,0-.84-.01-1.26,0-.92.04-1.34.39-1.44,1.31-.06.59-.04,1.19-.06,1.78-.03.64.28.95.91.95.84,0,1.68.02,2.52-.02.52-.03.67.12.67.65-.02,1.34-.02,2.67-.03,4.01v.15s0,.15,0,.15v.15s0,.15,0,.15v.15s0,.15,0,.15v.15s0,.15,0,.15v.15s0,.15,0,.15v.15s0,.15,0,.15v.15s0,.14,0,.14v.15s0,.15,0,.15v.15s0,.15,0,.15v.15s0,.15,0,.15v.15s0,.15,0,.15v.15s0,.15,0,.15v.14s0,.15,0,.15v.15s0,.15,0,.15v.15s0,.15,0,.15v.15s0,.15,0,.15v.15s0,.15,0,.15v.15s0,.15,0,.15v.14s0,.15,0,.15v.15s0,.15,0,.15v.15s0,.15,0,.15v.15s0,.15,0,.15v.14s0,.15,0,.15v.15s0,.15,0,.15v.15s0,.15,0,.15v.15s0,.15,0,.15v.15s0,.15,0,.15v.15s0,0,0,0c0,.05,0,.1,0,.15,0,.05,0,.1,0,.15,0,.05,0,.1,0,.15,0,.05,0,.1,0,.15,0,.05,0,.1,0,.15,0,.05,0,.1,0,.15s0,.1,0,.15c0,.05,0,.1,0,.15t0,0c0,.06.02.11.03.17.01.05.02.11.03.16.01.05.02.11.03.17.02.06.05.12.07.18.03.07.07.14.12.2.08.11.17.2.28.28l.49.23c.09.03.17.06.27.08.09.01.18.01.27.02.13.02.26.03.39.03.13.02.26.03.39.03.13,0,.26.03.39.04.12,0,.24.02.37.02.09,0,.19-.02.28-.02.09,0,.19-.02.28-.02.09,0,.19-.01.28-.02.1,0,.19-.01.29-.02.09,0,.19,0,.28-.01.09-.01.18,0,.28-.02h0c.08-.01.14-.03.22-.05.07-.01.15-.03.22-.05.06-.02.11-.05.16-.08.05-.03.1-.05.13-.09.04-.03.07-.07.09-.11.03-.03.04-.08.06-.12.02-.04.04-.07.05-.12,0-.04,0-.1.02-.14,0-.05,0-.09,0-.14s0-.09.01-.15c0-.03,0-.05,0-.08v-.07s0-.1,0-.15v-.15s0-.1,0-.15v-.15s0-.1,0-.15v-.15s0-.15,0-.15c0-.05,0-.1,0-.15v-.15c0-.05,0-.1,0-.15v-.15s0-.1,0-.15v-.15s0-.1,0-.15v-.15c0-.05,0-.1,0-.15v-.15c0-.05,0-.1,0-.15v-.15s0-.15,0-.15c0-.05,0-.1,0-.15v-.15s0-.1,0-.15v-.15s0-.1,0-.15v-.15s0-.1,0-.15v-.15s0-.1,0-.15v-.15s0-.15,0-.15c0-.05,0-.11,0-.15v-.15s0-.1,0-.15v-.15s0-.1,0-.15v-.15c0-.05,0-.1,0-.15v-.15s0-.1,0-.15v-.15s0-.15,0-.15c0-.05,0-.1,0-.15v-.15s0-.1,0-.15v-.15s0-.1,0-.15c0-2.24.01-4.47,0-6.7,0-.53.16-.6.64-.58,1.19.05,2.39.08,3.58.03.41-.01.68-.11.88-.29.01-.02.03-.03.05-.05,0-.01.01-.04.03-.06.01-.02.02-.04.03-.06.01-.01.02-.03.03-.05,0-.02.02-.04.03-.06.01-.02.02-.04.03-.06.01-.03.03-.03.03-.06,0-.02,0-.04.01-.07,0-.02,0-.04.01-.07,0-.02,0-.04.01-.07,0-.02,0-.04.01-.07,0-.02.01-.04.02-.06,0-.02,0-.04.01-.07,0-.02,0-.04.01-.07,0-.02,0-.04,0-.07,0-.02,0-.03.01-.05v-.02Z"/>
    <path class="cls-3" d="M490.89,136.12v-.05s.01-.03.02-.05c0-.02,0-.03,0-.05,0-.02,0-.03,0-.05,0-.02,0-.03,0-.05,0-.01,0-.03,0-.05,0-.01,0-.03,0-.05,0-.01,0-.03,0-.05v-.05s0-.03,0-.05c0-.02,0-.03,0-.05v-.05s0-.03,0-.05v-.05s0-.03,0-.05c0-.02,0-.04,0-.05v-.05s0-.03,0-.05v-.05s0-.04,0-.05c0-.02,0-.03,0-.05v-.05s0-.03,0-.05v-.05s0-.03,0-.05c0-.02,0-.03,0-.05v-.05s0-.04,0-.05v-.05s0-.03,0-.05c0-.02,0-.03,0-.05v-.05s0-.03,0-.05v-.05s0,0,0,0c0-.01,0-.03,0-.05,0-.01,0-.03,0-.05,0-.02,0-.04,0-.05,0-.02,0-.03,0-.05,0-.02,0-.04,0-.05,0-.02,0-.03,0-.05,0-.02,0-.04,0-.06v-.05s0-.04,0-.06c0-.01,0-.03,0-.05,0-.02,0-.03,0-.05,0-.02,0-.04,0-.06,0-.02,0-.03,0-.05,0-.02,0-.04,0-.05v-.05s0-.03,0-.05c0-.02,0-.03,0-.05,0-.02,0-.03,0-.05,0-.02,0-.03,0-.05,0-.02,0-.03,0-.05,0-.02,0-.03,0-.05,0-.02,0-.04,0-.06v-.05s0-.03,0-.06c0-.02,0-.03,0-.05,0-.02,0-.03,0-.05,0-.02,0-.03,0-.05,0-.02,0-.04,0-.06,0-.02,0-.04,0-.05,0-.02,0-.04,0-.06,0-.02,0-.03-.01-.05s0-.04,0-.06c0-.02,0-.04-.01-.05s0-.04,0-.06c0-.02,0-.03-.01-.05,0-.02,0-.04,0-.06,0-.02-.01-.03-.01-.05v-.06s-.01-.03-.02-.05v-.05s-.01-.04-.02-.06c0-.02,0-.04,0-.06,0-.02,0-.04-.01-.05,0-.02,0-.04,0-.06,0-.02,0-.03,0-.05,0-.02,0-.04,0-.06,0-.02,0-.03,0-.06v-.05s-.01-.03-.02-.06c0-.02,0-.04,0-.05v-.06s-.01-.04-.02-.05c0-.02,0-.04,0-.06,0-.02,0-.04-.01-.06,0-.02,0-.03,0-.05,0,0,0,0,0-.01,0-.02-.01-.03-.01-.05,0-.02-.01-.04-.02-.06,0-.02,0-.04-.02-.06,0-.02-.01-.04-.02-.06,0-.02,0-.04-.01-.06,0-.02-.01-.04-.02-.06,0-.02,0-.04-.01-.06,0-.02-.01-.04-.02-.06,0-.02-.01-.04-.02-.06,0-.02,0-.04-.01-.06,0-.02-.01-.04-.02-.06,0-.02-.01-.04-.02-.06,0-.01-.01-.04-.02-.06,0-.02,0-.04-.02-.06,0-.02,0-.04-.01-.06s0-.04-.02-.06c0-.02,0-.04-.02-.06,0-.02,0-.04-.01-.06-.01-.02-.01-.04-.02-.06,0-.02,0-.04-.01-.06,0-.02-.01-.04-.02-.06,0-.02-.02-.04-.02-.06,0-.02-.02-.04-.03-.06,0-.02-.02-.04-.03-.06,0-.02-.02-.04-.03-.06,0-.02-.02-.04-.02-.07,0-.02-.02-.04-.03-.06-.01-.02-.02-.04-.03-.06,0-.02-.02-.04-.03-.06,0-.02-.01-.04-.02-.07-.01-.02-.02-.04-.03-.06,0-.02-.02-.04-.03-.06,0-.02-.02-.04-.03-.06,0-.02,0-.04-.02-.06,0-.02-.02-.04-.03-.07,0-.02-.02-.04-.03-.06,0-.02-.02-.04-.03-.06,0-.02-.02-.04-.02-.07,0-.02-.02-.04-.03-.06-.02-.02-.03-.05-.04-.07-.01-.02-.03-.04-.04-.07-.01-.02-.03-.05-.04-.07-.01-.03-.03-.05-.04-.07-.02-.03-.03-.05-.04-.07,0-.02-.03-.05-.04-.07,0-.02-.03-.05-.04-.07-.01-.03-.03-.05-.04-.07-.02-.03-.03-.05-.04-.07-.02-.02-.03-.05-.04-.07-.02-.02-.03-.05-.04-.07-.02-.02-.03-.05-.04-.07-.02-.03-.03-.05-.04-.07-.02-.02-.02-.05-.04-.07-.02-.02-.03-.05-.05-.07-.02-.03-.04-.05-.06-.08-.02-.03-.04-.05-.06-.08-.02-.03-.04-.05-.07-.08-.02-.03-.04-.05-.06-.08-.02-.03-.05-.06-.07-.08-.02-.03-.04-.06-.06-.08-.02-.03-.04-.06-.07-.09-.02-.02-.05-.05-.06-.08-.03-.03-.04-.05-.06-.08-.03-.03-.05-.06-.07-.08-.02-.03-.05-.06-.07-.09-.03-.03-.08-.07-.11-.1-.03-.03-.08-.07-.11-.1-.04-.03-.08-.07-.11-.1-.04-.03-.07-.07-.11-.1-.03-.03-.07-.07-.11-.1-.04-.03-.07-.07-.11-.1-.04-.03-.07-.07-.11-.1-.06-.05-.13-.1-.2-.15-.08-.06-.16-.11-.25-.17-.08-.06-.16-.11-.25-.17-.09-.05-.17-.12-.25-.17l-1.4-.65c-.12-.04-.24-.08-.36-.11-.12-.04-.23-.08-.35-.11-.12-.04-.23-.08-.35-.11h0s-.11,0-.16-.02c-.05-.01-.11-.01-.16-.02-.05,0-.1-.01-.16-.02-.06-.01-.11-.01-.17-.02-.05-.01-.1-.01-.16-.02-.06-.01-.11-.01-.16-.02l-.16-.02c-.05,0-.11-.02-.16-.02-.06-.01-.11-.02-.16-.02-.05-.01-.11-.02-.16-.02-.06,0-.11-.02-.16-.02-.05,0-.11-.02-.16-.02-.06,0-.11-.02-.16-.02-.05,0-.11-.02-.16-.02-.05,0-.11-.02-.16-.02-.04,0-.08,0-.12,0-.03,0-.06,0-.09,0-.03,0-.07,0-.1,0-.03,0-.06,0-.1,0-.03,0-.07,0-.1,0-.03,0-.07,0-.1,0-.03,0-.07,0-.1,0-.03,0-.07,0-.1,0-.03,0-.07,0-.1,0-.03,0-.07,0-.1,0-.03,0-.07,0-.1,0-.03,0-.07,0-.1,0-.03,0-.07,0-.1,0h-.1s-.07,0-.1.01h-.1s-.06,0-.1.01c-.03,0-.07,0-.1,0-.03,0-.07,0-.1,0-.03,0-.07,0-.1,0-.04,0-.07,0-.1,0-.03,0-.07,0-.1,0-.03,0-.06,0-.09,0-.03,0-.07,0-.1,0-.03,0-.07,0-.1,0-.02,0-.04,0-.06,0-.01,0-.02,0-.04,0-.03,0-.05,0-.08.01-.03,0-.05.02-.08.02-.03,0-.05.01-.08.02l-.08.02s-.05.02-.08.02l-.08.02s-.04.01-.07.01c-.03,0-.05.01-.08.02h-.08s-.05.03-.08.03l-.08.02s-.05,0-.07.01c-.03,0-.05.01-.08.02l-.08.02s-.05,0-.08.02c-.02,0-.05,0-.08.02-.02,0-.05,0-.08.02-.02,0-.04.01-.07.02-.02,0-.04.01-.07.02-.02,0-.04.02-.06.02-.03,0-.04.01-.07.02-.03,0-.04.02-.07.02-.03,0-.04.02-.07.02-.02,0-.04.01-.07.02-.02,0-.04.01-.07.02-.02,0-.04.02-.07.02-.03,0-.04.01-.07.02-.02,0-.04.01-.07.02-.02,0-.04.01-.07.02-.02,0-.04.01-.07.02-.02,0-.04.02-.07.02-.02,0-.04.01-.06.02-.02,0-.04.01-.07.02-.02,0-.04.01-.06.02-.02,0-.04.01-.07.02-.02,0-.04.01-.07.02-.02,0-.04.02-.06.03-.02,0-.04.02-.06.02-.02,0-.04.02-.05.03-.02,0-.04.02-.06.03-.02,0-.04.02-.05.03-.02,0-.04.02-.06.02-.01,0-.04.02-.05.03-.02,0-.04.02-.06.03-.02,0-.03.02-.05.03-.02,0-.04.02-.06.03-.02,0-.04.01-.05.02-.02,0-.04.02-.06.03-.02.01-.04.02-.05.03-.02,0-.03.02-.05.03-.02,0-.04.01-.06.02-.02,0-.04.02-.06.02-.02.01-.03.02-.05.03-.02,0-.03.02-.05.03-.02,0-.04.01-.06.02-.02,0-.04.02-.05.03-.02,0-.04.01-.06.02-.02.01-.03.02-.05.03-.01,0-.03.02-.05.03-.02,0-.03.02-.04.03-.02,0-.03.02-.05.03-.02,0-.03.02-.04.03l-.05.03s-.03.02-.04.03l-.05.03-.05.03s-.03.02-.04.03l-.05.03s-.03.02-.05.03l-.05.03-.04.03s-.03.02-.04.03l-.05.03s-.03.02-.04.03c-.01.01-.03.02-.04.03-.02,0-.03.02-.05.03-.01,0-.03.02-.04.03-.01.01-.03.02-.05.03-.02.02-.03.02-.04.03-.02.01-.03.02-.05.03-.01.01-.03.03-.04.04-.01.01-.02.02-.03.03-.01.01-.02.02-.04.03-.01.01-.02.02-.04.04-.01.01-.02.02-.03.03-.01.01-.02.02-.04.04-.01.01-.02.02-.04.03-.01.01-.02.02-.04.04,0,.01-.02.02-.04.03,0,.01-.02.02-.04.03l-.04.04s-.02.02-.04.03c0,.01-.02.02-.04.04,0,.01-.02.02-.04.03,0,.01-.02.02-.04.03-.01.01-.03.03-.04.04,0,.01-.02.02-.04.03-.01.01-.03.02-.04.03-.01.02-.03.03-.04.04-.01.01-.03.02-.04.03-.01.01-.03.02-.04.04-.01.01-.03.02-.04.04-.01.01-.03.02-.04.03-.01.01-.03.02-.04.04-.01.01-.02.02-.04.04,0,0-.01.02-.03.03,0,.01-.02.03-.03.04-.01.01-.02.03-.03.04-.01.01-.02.02-.03.03l-.03.04s-.02.03-.03.03l-.03.04s-.02.02-.03.04c0,.01-.02.03-.03.03l-.03.04s-.02.03-.03.04c0,.01-.02.03-.03.03l-.03.04-.03.04-.03.03s-.02.02-.03.04c-.61.8-1.12,1.71-1.47,2.81-.39,1.15-.55,2.31-.6,3.46,0,.04,0,.07,0,.1,0,.04,0,.07,0,.11,0,.03,0,.07,0,.11,0,.03,0,.07,0,.1,0,.04-.01.07,0,.1,0,.04,0,.07,0,.11,0,.04,0,.07-.01.11,0,.03.01.08.01.11,0,.04,0,.08,0,.11,0,.04.01.08.01.11,0,.04,0,.08,0,.12,0,.04,0,.08.01.11,0,.04,0,.08,0,.11,0,.04,0,.08.01.11,0,.04,0,.08,0,.11,0,.04,0,.08.01.12,0,.03,0,.07,0,.11,0,.04,0,.07,0,.11,0,.04,0,.08,0,.11,0,.04,0,.08.01.12,0,.03,0,.07.01.11,0,.03,0,.07,0,.11,0,.04,0,.08.01.11,0,.04,0,.08.01.11,0,.04,0,.07,0,.12,0,.04.01.08.02.12,0,.04.03.08.03.12,0,.04.02.08.03.12,0,.04.02.08.03.12,0,.04.02.08.03.12,0,.04.03.09.03.13.01.04.02.08.03.12.01.04.02.08.03.12.01.04.02.08.03.12,0,.04.02.08.03.12,0,.04.02.08.03.12.01.04.02.08.04.12.01.04.02.09.03.13,0,.04.02.08.03.12.01.04.02.08.03.12.02.04.02.08.03.12.02.04.02.08.04.13,0,.02,0,.03.01.05,0,.03.02.05.03.08.02.05.05.09.06.13.02.05.04.09.06.14.02.05.04.09.06.14.02.04.04.09.07.14.02.05.04.09.06.14.02.05.04.09.07.14.02.05.04.09.06.14.02.04.04.09.07.14.02.04.04.09.06.13.03.05.04.1.06.14.03.05.04.09.07.14.03.05.04.1.06.14.02.04.04.1.07.14.04.06.09.11.13.17.04.06.1.11.14.17.05.06.1.11.14.18.04.06.09.12.14.17.04.06.09.12.14.17s.09.12.14.17c.05.06.09.12.14.17.05.06.08.12.13.18.05.05.09.12.14.17.11.11.27.19.39.29.12.11.26.19.39.29.13.1.25.2.39.29.13.09.24.21.39.29l.2.09c.54.3,1.12.55,1.76.74.04.01.07.01.11.02.15.04.3.06.44.1.15.04.3.07.44.1.15.03.29.07.44.1s.29.07.44.1c.1.02.2.02.29.03.09.01.18,0,.27.02.09,0,.18.01.27.01l.27.02c.09,0,.18.01.27.02.09,0,.18.02.27.01.09,0,.18.02.27.02.07,0,.14,0,.2-.01.06,0,.13-.02.19-.02.07,0,.13-.02.2-.02.06,0,.13-.01.19-.02.06,0,.13-.01.19-.02.06,0,.13-.01.19-.02.07,0,.13,0,.2-.01.06,0,.13-.01.19-.02.06,0,.13,0,.19-.02.07,0,.13,0,.19-.01.05-.01.1-.03.15-.04.05,0,.1-.03.15-.04.05,0,.1-.02.15-.04.05-.01.1-.03.15-.04.05-.01.1-.03.14-.04.05,0,.1-.02.15-.04.05-.02.1-.03.15-.04.05-.02.1-.02.15-.04.05-.01.1-.02.15-.04.05-.02.1-.03.15-.04s.1-.02.15-.04c.05-.02.1-.02.15-.04.03-.01.06-.01.09-.03.02,0,.03-.01.05-.02.04-.01.07-.04.11-.05.04-.02.08-.04.12-.05.04-.02.08-.04.11-.06.04-.02.08-.04.12-.06.04-.01.08-.03.12-.05.04-.02.09-.04.12-.05l.11-.05s.09-.04.12-.05c.04-.02.08-.03.11-.06.04-.02.08-.03.12-.05.04-.01.08-.03.12-.05.04-.02.09-.03.12-.05.04-.02.08-.03.12-.05.04-.02.07-.04.11-.06.03-.02.06-.04.09-.06.03-.02.06-.05.09-.07.03-.02.06-.05.09-.07.03-.02.06-.04.09-.06.03-.02.06-.05.09-.07.03-.02.06-.04.09-.07.03-.02.06-.04.09-.06.03-.02.06-.05.09-.07.03-.02.06-.04.09-.07.03-.02.06-.04.09-.06.03-.02.06-.04.09-.07.03-.03.06-.04.09-.07.03-.02.07-.04.09-.07.02-.02.06-.04.09-.07.03-.03.06-.04.09-.07.02-.02.04-.05.06-.08.03-.02.05-.05.07-.08.02-.02.04-.05.07-.08.02-.02.04-.05.06-.08.02-.02.04-.05.07-.08.67-.71,1.25-1.53,1.67-2.51.48-1.12.74-2.28.86-3.54ZM483.83,140.05s-.04.05-.06.08c-.02.03-.04.06-.06.08-.02.02-.04.06-.06.08-.02.03-.05.05-.08.07-.03.03-.06.04-.09.07-.03.03-.06.04-.09.07-.03.02-.06.04-.09.07-.03.02-.06.04-.09.07-.03.02-.06.04-.09.07-.03.02-.05.05-.09.07-.03.02-.05.05-.09.07-.04.02-.09.03-.13.05-.04.02-.1.02-.14.04-.04.02-.1.03-.14.04-.05.01-.09.03-.14.04-.05.01-.09.03-.14.04-.05,0-.09.03-.14.04-.03,0-.06.02-.09.02-.03,0-.06,0-.09,0-.07.01-.14,0-.22,0-.07,0-.14,0-.22,0-.07,0-.15,0-.22,0-.07,0-.15.01-.22,0-.12,0-.24-.04-.36-.06-.16-.02-.32-.06-.48-.11-.23-.07-.44-.18-.65-.3-.18-.11-.36-.21-.52-.35-.06-.05-.1-.13-.16-.18-.06-.06-.11-.12-.16-.19-.05-.06-.11-.11-.16-.18-.05-.07-.11-.11-.16-.18h0c-.03-.05-.03-.1-.06-.14-.03-.04-.04-.09-.06-.14-.03-.04-.04-.09-.07-.13-.03-.05-.04-.1-.07-.14-.03-.05-.04-.09-.07-.14-.02-.05-.04-.09-.07-.14-.02-.05-.05-.09-.07-.14-.02-.05-.05-.1-.07-.14-.02-.05-.05-.09-.07-.14-.02-.05-.05-.09-.07-.14,0-.04-.02-.08-.03-.12-.01-.04-.02-.08-.02-.12-.01-.04-.02-.08-.03-.12-.01-.04-.02-.08-.02-.13-.01-.04-.02-.08-.03-.12,0-.04-.02-.08-.03-.12,0-.04-.02-.08-.03-.12,0-.04-.02-.08-.02-.12-.01-.04-.02-.08-.03-.12-.03-.16-.08-.32-.11-.48-.26-1.84-.38-3.69.1-5.52.11-.39.28-.71.45-1.02,0-.01.02-.03.03-.04,0-.01,0-.03.02-.04.01-.02.01-.03.02-.05,0-.01,0-.03.02-.04,0-.01,0-.03.02-.04s.01-.03.02-.04c0-.01.01-.03.02-.05s0-.03.02-.05c0-.01.02-.02.02-.04,0-.01.03-.02.03-.04,0-.01.02-.02.03-.04.01-.01.03-.02.04-.03.01-.02.02-.02.03-.04.01-.02.02-.02.04-.04,0-.01.02-.02.04-.04,0-.01.02-.02.03-.04,0-.01.02-.02.03-.03,0-.01.02-.02.04-.03,0-.01.02-.02.03-.04,0-.01.02-.02.03-.04,0-.01.02-.02.04-.03,0-.01.02-.02.04-.04l.03-.04s.02-.02.03-.03c0-.01.02-.02.04-.03,0-.01.02-.03.03-.04.01-.01.02-.03.03-.04.02,0,.02-.03.04-.04.02,0,.02-.02.03-.03.01-.01.02-.03.03-.04.01,0,.02-.02.04-.03.02-.01.03-.03.03-.04.02-.01.02-.03.03-.04.01,0,.03-.03.04-.03.02,0,.02-.03.03-.04.02,0,.02-.02.04-.03.02-.01.05-.01.06-.02.02-.01.04-.01.06-.02.02-.01.04-.01.06-.03.02-.01.04-.01.06-.03.02,0,.04-.01.06-.02.02,0,.05,0,.06-.02.02,0,.04-.01.06-.02.02,0,.04-.02.07-.02.02-.01.03-.02.06-.03l.06-.02.06-.02s.04-.02.06-.02c.02,0,.04-.02.06-.03.02,0,.04-.02.06-.03.02,0,.04-.01.06-.02.02,0,.04-.02.06-.02.02,0,.04-.02.06-.02.02,0,.04-.02.06-.02.02,0,.04-.02.06-.03.02,0,.04-.02.06-.02.03,0,.07,0,.11,0,.03,0,.08,0,.11,0,.04,0,.08,0,.12,0,.03,0,.07,0,.11,0,.04,0,.08,0,.12,0,.04,0,.08,0,.12,0,.03,0,.08,0,.12,0h.12s.07,0,.12,0c.04,0,.08,0,.11,0,.04,0,.07,0,.12,0,.04,0,.07,0,.11,0,.04,0,.08,0,.12,0,.01,0,.02,0,.03,0,.08.01.15.05.23.07.11.03.22.06.32.1.15.06.3.12.43.19.1.06.21.12.31.2.05.04.12.08.17.13.03.02.05.06.08.09.03.02.06.06.08.09.03.03.06.06.09.09.02.03.05.06.08.09.03.03.05.06.08.09.03.03.05.05.07.08,0,.02.02.05.04.07.02.02.03.05.04.07.02.02.03.05.04.08,0,.02.02.04.04.07.01.02.03.05.04.07.01.02.03.05.04.07.02.02.03.05.05.07.01.03.03.05.05.07,0,.03.03.05.04.07,0,0,0,0,0,.01,0,.02.01.04.02.05,0,.02.02.04.03.07,0,.02.01.04.02.06,0,.02.02.04.03.06,0,.02.02.04.02.06l.02.06.03.06s.01.04.02.06c0,.02.02.04.03.06,0,.03.01.04.02.07l.03.06s.02.04.02.06c0,.02.02.04.02.06,0,.03.02.04.03.07,0,.02.01.04.02.06,0,.02,0,.04.01.06,0,.02,0,.04.01.06,0,.02,0,.04.01.06,0,.02,0,.04.01.06,0,.02,0,.04.01.06s0,.04,0,.06c0,.02.01.04.02.06,0,.02.01.04.02.06,0,.02,0,.04,0,.06,0,.02.01.04.01.06,0,.02,0,.04.02.06,0,.02,0,.03.01.05,0,.02,0,.04.01.06,0,.02,0,.04.01.06,0,.02,0,.04.01.05,0,.02.01.04.02.06,0,.02,0,.04.01.05,0,.02,0,.04,0,.06,0,.02,0,.04,0,.05,0,.02,0,.04,0,.06v.05s.01.05.01.05c0,.02,0,.04,0,.06v.06s.02.05.02.05c0,.02,0,.04,0,.06v.05s.01.05.01.05v.05s.01.04.01.06v.05s.01.04.01.06c0,.02,0,.04.01.05v.06s0,.04,0,.05c0,.02,0,.04,0,.06,0,.02,0,.04,0,.05,0,.02,0,.03,0,.05,0,.02,0,.04,0,.05.02.23.03.46.05.68.03.44,0,.88,0,1.32.02,1.17-.01,2.34-.36,3.47-.15.5-.38.92-.66,1.29Z"/>
    <path class="cls-3" d="M452.69,142.15h0s0-.02,0-.03c0,0,0,0,0-.01,0,0,0,0,0-.01,0,0,0,0,0-.02,0,0,0,0,0-.01,0,0,0,0,0-.02,0,0,0,0,0-.01v-.02s0,0,0-.01c0,0,0-.01,0-.02h0s0-.02,0-.03v-.02s0,0,0-.01c0,0,0-.01,0-.02v-.02s0,0,0-.02h0s0-.02,0-.03c0,0,0,0,0-.01v-.02s0-.01,0-.01v-.02s0,0,0-.02c0,0,0,0,0-.01h0s0-.03,0-.03h0s0-.02,0-.03c0,0,0,0,0-.02h0s0-.02,0-.03v-.02s0,0,0,0c0,0,0-.01,0-.02,0,0,0,0,0-.01,0,0,0-.01,0-.02,0,0,0-.01,0-.02,0,0,0-.01,0-.02,0,0,0-.01,0-.01,0,0,0-.01,0-.02h0s0-.03,0-.03c0,0,0-.01,0-.02,0,0,0-.01,0-.01,0,0,0-.01,0-.02,0,0,0-.01,0-.02,0,0,0-.01,0-.02v-.02s0-.01,0-.02c0,0,0-.01,0-.02,0,0,0-.01,0-.02,0,0,0-.01,0-.02,0,0,0,0,0-.02,0,0,0,0,0-.01,0,0,0-.01,0-.02h0s0-.03,0-.03c0,0,0,0,0-.01,0,0,0-.01,0-.02,0,0,0,0,0-.02,0,0,0-.01,0-.02,0,0,0-.01,0-.02,0,0,0-.01,0-.02,0,0,0,0,0-.02s0-.01,0-.02c0,0,0-.01,0-.02s0-.01,0-.02c0,0,0,0,0-.02,0,0,0-.01,0-.02,0,0,0,0,0-.02v-.02s0-.01,0-.02v-.02s0-.01,0-.02c0,0,0-.01,0-.02,0,0,0-.01,0-.02,0,0,0-.01,0-.02,0,0,0-.01,0-.02,0,0,0-.01,0-.02,0,0,0-.01,0-.02v-.02s0-.01,0-.02c0,0,0-.01,0-.02v-.02s0-.01,0-.02c0,0,0-.01,0-.02,0,0,0-.01,0-.02,0,0,0-.01,0-.02,0,0,0,0,0,0,0,0,0,0,0-.01,0,0,0-.01,0-.02,0,0,0-.01,0-.02,0,0,0-.01,0-.02,0,0,0-.01,0-.02,0,0,0-.01,0-.02,0,0,0-.01,0-.02,0,0,0-.01,0-.02,0,0,0-.01,0-.02,0,0,0-.01,0-.02,0,0,0-.01,0-.02,0,0,0-.01,0-.02,0,0,0-.01,0-.02,0,0,0-.01,0-.02,0,0,0-.01,0-.02s0-.01,0-.02c0,0,0-.01,0-.02,0,0,0-.01,0-.02,0,0,0-.01,0-.02,0,0,0-.01,0-.02,0,0,0-.01,0-.02,0,0,0-.01,0-.02,0,0,0-.01,0-.02,0,0,0-.01,0-.02,0,0,0-.01,0-.02,0,0,0-.01,0-.02,0,0,0-.01,0-.02,0,0,0-.01,0-.02,0,0,0-.01,0-.02,0,0,0-.01,0-.02,0,0,0-.01,0-.02,0,0,0-.01,0-.02,0,0,0-.01,0-.02,0,0,0-.01,0-.02,0,0,0-.01,0-.02,0,0,0-.01,0-.02,0,0,0-.01,0-.02,0,0,0-.01,0-.02,0,0,0-.01,0-.02,0,0,0-.01-.01-.02,0,0,0-.01-.01-.02,0,0,0-.01-.01-.02,0,0,0-.01-.01-.02,0,0,0-.01-.01-.02,0,0,0-.01-.01-.02,0,0,0-.01-.01-.02,0,0,0-.01-.01-.02,0,0,0-.01-.01-.02,0,0,0-.01-.01-.02,0,0,0-.02-.01-.02,0,0,0-.01-.01-.02,0,0,0-.01-.01-.02,0,0,0-.02-.01-.02,0,0,0-.01-.01-.02,0,0-.01-.02-.02-.02,0,0-.01-.02-.02-.02,0,0-.01-.02-.02-.03,0,0-.01-.02-.02-.02,0,0-.01-.02-.02-.02,0,0-.01-.02-.02-.02,0,0-.01-.02-.02-.03,0,0-.01-.02-.02-.02,0,0-.01-.02-.02-.02,0,0-.01-.02-.02-.03,0,0-.01-.02-.02-.03,0-.01-.02-.02-.03-.03-.01-.01-.02-.02-.03-.03-.01-.01-.02-.02-.03-.03-.01-.01-.02-.02-.03-.03-.01-.01-.02-.02-.03-.03-.01-.01-.02-.02-.03-.03-.01-.01-.02-.02-.03-.03-.02-.02-.04-.03-.06-.04-.02-.02-.05-.03-.07-.05-.02-.02-.05-.03-.07-.05-.03-.02-.05-.04-.08-.05l-.42-.2s-.07-.02-.11-.03c-.03-.01-.07-.02-.11-.03-.04-.01-.07-.02-.11-.03h0s-.03,0-.05,0c-.02,0-.03,0-.05,0-.01,0-.03,0-.05,0-.02,0-.03,0-.05,0-.01,0-.03,0-.05,0-.02,0-.03,0-.05,0h-.05s-.03-.01-.05-.01c-.02,0-.03,0-.05,0-.02,0-.03,0-.05,0-.02,0-.03,0-.05,0-.02,0-.03,0-.05,0-.02,0-.03,0-.05,0-.02,0-.03,0-.05,0-.02,0-.03,0-.05,0-.01,0-.02,0-.04,0,0,0-.02,0-.03,0-.01,0-.02,0-.03,0,0,0-.02,0-.03,0-.01,0-.02,0-.03,0-.01,0-.02,0-.03,0-.01,0-.02,0-.03,0,0,0-.02,0-.03,0-.01,0-.02,0-.03,0-.01,0-.02,0-.03,0-.01,0-.02,0-.03,0,0,0-.02,0-.03,0,0,0-.02,0-.03,0h-.03s-.02,0-.03,0h-.03s-.02,0-.03,0c-.01,0-.02,0-.03,0-.01,0-.02,0-.03,0-.01,0-.02,0-.03,0-.01,0-.02,0-.03,0,0,0-.02,0-.03,0,0,0-.02,0-.03,0,0,0-.02,0-.03,0,0,0-.02,0-.03,0,0,0-.01,0-.02,0,0,0,0,0-.01,0,0,0-.02,0-.02,0,0,0-.02,0-.02,0,0,0-.02,0-.02,0h-.02s-.02,0-.02,0h-.02s-.01,0-.02,0c0,0-.02,0-.02,0h-.02s-.02,0-.02,0h-.02s-.02,0-.02,0c0,0-.02,0-.02,0h-.02s-.01,0-.02,0c0,0-.01,0-.02,0,0,0-.01,0-.02,0,0,0-.01,0-.02,0,0,0-.01,0-.02,0,0,0-.01,0-.02,0,0,0-.01,0-.02,0,0,0-.01,0-.02,0,0,0-.01,0-.02,0,0,0-.01,0-.02,0,0,0-.01,0-.02,0,0,0-.01,0-.02,0,0,0-.01,0-.02,0,0,0-.01,0-.02,0,0,0-.01,0-.02,0,0,0-.01,0-.02,0,0,0-.01,0-.02,0,0,0-.01,0-.02,0,0,0-.01,0-.02,0,0,0-.01,0-.02,0,0,0-.01,0-.02,0,0,0-.01,0-.02,0,0,0-.01,0-.02,0,0,0-.01,0-.02,0,0,0-.01,0-.02,0,0,0-.01,0-.02,0,0,0-.01,0-.02,0,0,0-.01,0-.02,0,0,0-.01,0-.01,0,0,0-.01,0-.02,0,0,0-.01,0-.02,0,0,0-.01,0-.02,0,0,0-.01,0-.02,0,0,0-.01,0-.02,0,0,0-.01,0-.02,0,0,0-.01,0-.02,0,0,0-.01,0-.02,0,0,0-.01,0-.02,0,0,0-.01,0-.02,0,0,0-.01,0-.02,0,0,0-.01,0-.02,0,0,0-.01,0-.02,0,0,0-.01,0-.02,0,0,0,0,0-.02,0,0,0,0,0-.01,0,0,0,0,0-.01,0,0,0,0,0-.01,0,0,0,0,0-.01,0h-.01s0,.01-.01.02h-.01s-.01.02-.01.02c0,0,0,0-.01,0h-.01s0,.02-.01.02h-.01s-.01.02-.01.02c0,0,0,0-.01,0h-.01s0,.01-.01.02c0,0,0,0-.01,0,0,0,0,0-.02,0,0,0,0,0-.01,0,0,0,0,0-.01,0,0,0,0,0-.01,0,0,0,0,0-.01,0,0,0,0,0-.01.01,0,0,0,0-.01.01,0,0,0,0-.01,0,0,0,0,0-.01.01,0,0,0,0-.01.01,0,0,0,0-.01.01,0,0,0,0-.01,0,0,0,0,0-.01.01,0,0,0,0-.01,0,0,0,0,0-.01,0h-.01s0,.02-.01.02c0,0,0,0-.01.01,0,0,0,0-.01,0,0,0,0,0-.01,0,0,0,0,0-.01.01,0,0,0,0-.01,0,0,0,0,0-.01,0,0,0,0,0-.01.01,0,0,0,0-.01,0,0,0,0,0-.01.01,0,0,0,0-.01.01,0,0,0,0-.01,0,0,0,0,0-.01.01,0,0,0,0-.01.01,0,0,0,0,0,.01,0,0,0,0,0,.01,0,0,0,0,0,.01,0,0,0,0,0,.01h0s0,.02,0,.02h0s0,.02,0,.02c0,0,0,0,0,.01h0s0,.02,0,.02c0,0,0,0,0,.01h0s0,.02,0,.02h0s0,.02,0,.02c-.18.24-.33.51-.44.84-.12.34-.16.69-.18,1.03,0,.01,0,.02,0,.03,0,.01,0,.02,0,.03,0,.01,0,.02,0,.03,0,.01,0,.02,0,.03,0,.01,0,.02,0,.03,0,.01,0,.02,0,.03,0,.01,0,.02,0,.03,0,.01,0,.02,0,.03,0,.01,0,.02,0,.03,0,.01,0,.02,0,.03,0,.01,0,.02,0,.03,0,.01,0,.02,0,.03,0,.01,0,.02,0,.03,0,.01,0,.02,0,.03,0,.01,0,.02,0,.03,0,.01,0,.02,0,.03,0,.01,0,.02,0,.03,0,.01,0,.02,0,.03,0,.01,0,.02,0,.03,0,.01,0,.02,0,.03,0,.01,0,.02,0,.03,0,.01,0,.02,0,.03,0,.01,0,.02,0,.03,0,.01,0,.02,0,.03,0,.01,0,.02,0,.03,0,.01,0,.02,0,.04,0,.01,0,.02,0,.04,0,.01,0,.02.01.04,0,.01,0,.02,0,.04,0,.01,0,.03,0,.04,0,.01,0,.03,0,.04,0,.01,0,.02,0,.04,0,.01,0,.02,0,.04,0,.01,0,.02,0,.04,0,.01,0,.02.01.04,0,.01,0,.03,0,.04,0,.01,0,.02.01.04,0,.01,0,.03,0,.04,0,.01,0,.03,0,.04,0,.01,0,.02,0,.04,0,.01,0,.02,0,.04,0,.01,0,.03.01.04,0,0,0,.01,0,.02,0,0,0,.02,0,.02,0,.01.01.03.02.04,0,.02.01.03.02.04,0,.02.01.03.02.04,0,.01.01.03.02.04,0,.01.01.03.02.04,0,.01.01.03.02.04,0,.02.01.03.02.04,0,.01.01.03.02.04,0,.01.01.03.02.04,0,.01.01.03.02.04,0,.01.01.03.02.04,0,.01.01.03.02.04,0,.01.01.03.02.04.01.02.03.03.04.05.01.02.03.03.04.05.01.02.03.03.04.05.01.02.03.03.04.05.01.02.03.03.04.05s.03.04.04.05c.02.02.03.03.04.05.01.02.02.04.04.05.02.01.03.04.04.05.03.03.08.06.12.09.04.03.08.06.12.09.04.03.08.06.12.09.04.03.07.06.12.09l.06.03c.16.09.34.16.53.22.01,0,.02,0,.03,0,.04.01.09.02.13.03.04.01.09.02.13.03.04,0,.09.02.13.03s.09.02.13.03c.03,0,.06,0,.09,0,.03,0,.05,0,.08,0,.03,0,.05,0,.08,0h.08s.05,0,.08.01c.03,0,.05,0,.08,0,.03,0,.05,0,.08,0,.02,0,.04,0,.06,0,.02,0,.04,0,.06,0,.02,0,.04,0,.06,0,.02,0,.04,0,.06,0,.02,0,.04,0,.06,0,.02,0,.04,0,.06,0,.02,0,.04,0,.06,0,.02,0,.04,0,.06,0,.02,0,.04,0,.06,0,.02,0,.04,0,.06,0,.02,0,.03,0,.05-.01.01,0,.03,0,.04-.01.01,0,.03,0,.05-.01.02,0,.03,0,.05-.01.01,0,.03,0,.04-.01.02,0,.03,0,.05-.01.01,0,.03,0,.04-.01.02,0,.03,0,.05-.01.02,0,.03,0,.05-.01.01,0,.03,0,.04-.01s.03,0,.05-.01c.02,0,.03,0,.05-.01,0,0,.02,0,.03,0,0,0,0,0,.01,0,.01,0,.02-.01.03-.02.01,0,.02-.01.04-.02.01,0,.02-.01.03-.02.01,0,.02-.01.03-.02.01,0,.02-.01.03-.02.01,0,.03-.01.04-.02l.03-.02s.03-.01.04-.02c.01,0,.02-.01.03-.02.01,0,.02-.01.04-.02.01,0,.02,0,.03-.02.01,0,.03,0,.04-.02.01,0,.02,0,.03-.02.01,0,.02-.01.03-.02,0,0,.02-.01.03-.02.01,0,.02-.01.03-.02.01,0,.02-.01.03-.02,0,0,.02-.01.03-.02,0,0,.02-.01.03-.02,0,0,.02-.01.03-.02.01,0,.02-.01.03-.02,0,0,.02-.01.03-.02,0,0,.02-.01.03-.02,0,0,.02-.01.03-.02,0,0,.02-.01.03-.02,0,0,.02-.01.03-.02,0,0,.02-.01.03-.02,0,0,.02-.01.03-.02,0,0,.02-.01.03-.02,0,0,.01-.02.02-.02,0,0,.01-.02.02-.02,0,0,.01-.01.02-.02,0,0,.01-.02.02-.02,0,0,.01-.02.02-.02.2-.21.37-.46.5-.75.14-.33.22-.68.26-1.06Z"/>
  </g>
</svg>